o greedy_level
v 1.5 0 2.5
v 1.5 1 2.5
v -1.5 1 2.5
v -1.5 0 2.5
v 1.5 1 1.5
v 1.5 2 1.5
v -1.5 2 1.5
v -1.5 1 1.5
v -1.5 0 -3.5
v -1.5 2 -3.5
v 1.5 2 -3.5
v 1.5 0 -3.5
v 1.5 0 -3.5
v 1.5 1 -3.5
v 1.5 1 2.5
v 1.5 0 2.5
v 1.5 1 -3.5
v 1.5 2 -3.5
v 1.5 2 1.5
v 1.5 1 1.5
v -1.5 0 2.5
v -1.5 1 2.5
v -1.5 1 -3.5
v -1.5 0 -3.5
v -1.5 1 1.5
v -1.5 2 1.5
v -1.5 2 -3.5
v -1.5 1 -3.5
v -1.5 1 1.5
v -1.5 1 2.5
v 1.5 1 2.5
v 1.5 1 1.5
v -1.5 2 -3.5
v -1.5 2 1.5
v 1.5 2 1.5
v 1.5 2 -3.5
v -1.5 0 -3.5
v 1.5 0 -3.5
v 1.5 0 2.5
v -1.5 0 2.5
vt 0 0
vt 0 1
vt 3 1
vt 3 0
vt 0 0
vt 0 1
vt 3 1
vt 3 0
vt 0 0
vt 0 2
vt 3 2
vt 3 0
vt 0 0
vt 0 1
vt 6 1
vt 6 0
vt 0 0
vt 0 1
vt 5 1
vt 5 0
vt 0 0
vt 0 1
vt 6 1
vt 6 0
vt 0 0
vt 0 1
vt 5 1
vt 5 0
vt 0 0
vt 0 1
vt 3 1
vt 3 0
vt 0 0
vt 0 5
vt 3 5
vt 3 0
vt 0 0
vt 0 3
vt 6 3
vt 6 0
f 1/1 2/2 3/3
f 1/1 3/3 4/4
f 5/5 6/6 7/7
f 5/5 7/7 8/8
f 9/9 10/10 11/11
f 9/9 11/11 12/12
f 13/13 14/14 15/15
f 13/13 15/15 16/16
f 17/17 18/18 19/19
f 17/17 19/19 20/20
f 21/21 22/22 23/23
f 21/21 23/23 24/24
f 25/25 26/26 27/27
f 25/25 27/27 28/28
f 29/29 30/30 31/31
f 29/29 31/31 32/32
f 33/33 34/34 35/35
f 33/33 35/35 36/36
f 37/37 38/38 39/39
f 37/37 39/39 40/40
